<svg width="174" height="174" viewBox="0 0 174 174" fill="none" xmlns="http://www.w3.org/2000/svg">
<circle cx="87" cy="87" r="83" fill="#008AD2" stroke="#1A1A18" stroke-width="8"/>
<path d="M78 87.8C76 90.3 73.1 92.1 69.1 93.1C65.1 94.2 60.1 94.7 54 94.7C49.4 94.7 45.6 94.5 42.4 93.9C39.2 93.4 36.7 92.5 34.8 91.2C32.8 89.9 31.4 88.1 30.6 85.9C29.7 83.7 29.3 80.9 29.3 77.5C29.3 74.1 29.7 71.3 30.7 69.1C31.6 66.9 33.1 65.2 35.2 64C37.3 62.8 40 61.9 43.3 61.4C46.5 60.9 50.5 60.6 55.3 60.6C60.7 60.6 65.2 61 69 61.6C72.7 62.3 75.7 63.4 78 65V59.5C78 55.8 75.6 53.9 70.8 53.9H55.7C52.1 53.9 50.3 55.2 50.3 57.8H31.7V57.2C31.7 51.6 33.8 47.6 38 45.3C42.2 43.1 48.8 41.9 57.8 41.9H75.9C82.9 41.9 88 43.3 91.4 46C94.8 48.8 96.5 53.1 96.5 58.9V94H78V87.8ZM68.6 82C71.8 82 74.1 81.7 75.6 80.9C77 80.2 77.8 78.8 77.8 76.7C77.8 74.7 77 73.3 75.6 72.7C74.1 72.1 71.8 71.8 68.6 71.8H57.3C54.1 71.8 51.7 72.2 50.3 72.9C48.8 73.7 48.1 75.1 48.1 77.1C48.1 79.2 48.8 80.5 50.3 81.1C51.7 81.7 54.1 82 57.3 82H68.6Z" fill="white"/>
<path d="M78.2 59.3H96.7V90.1C97.7 86.3 100.1 83.8 103.9 82.5C107.6 81.3 112.9 80.6 119.9 80.6C124.7 80.6 128.9 81 132.3 81.6C135.7 82.2 138.4 83.3 140.6 84.7C142.7 86.2 144.2 88.1 145.2 90.4C146.2 92.7 146.7 95.5 146.7 98.7V115.7C146.7 118.9 146.2 121.6 145.2 123.8C144.2 126 142.6 127.8 140.4 129.2C138.2 130.6 135.3 131.5 131.9 132.1C128.5 132.7 124.4 132.9 119.6 132.9C115.8 132.9 112.6 132.8 109.8 132.4C107 132.1 104.7 131.6 102.8 130.8C100.9 130 99.5 129 98.5 127.7C97.5 126.4 96.9 124.8 96.7 122.8V132H78.2V59.3ZM116.5 118.7C120.5 118.7 123.5 118.1 125.4 116.9C127.2 115.7 128.2 113.4 128.2 110V103.6C128.2 100.4 127.2 98.2 125.4 96.8C123.6 95.5 120.6 94.8 116.5 94.8H108.1C103.7 94.8 100.6 95.5 98.9 96.8C97.2 98.1 96.4 100.5 96.4 103.9V110.1C96.4 113.3 97.3 115.6 99.1 116.8C100.9 118.1 103.9 118.7 108.1 118.7H116.5Z" fill="white"/>
</svg>
